# xmcd
#
# Track frame offsets:
#	150
#	21934
#	40124
#	57940
#	71316
#	89758
#	106320
#	126106
#	148062
#	165221
#	184937
#	208489
#	232835
#	254962
#	276526
#	289874
#	312027
#	336334
#
# Disc length: 4777 seconds
#
# Revision: 0
# Processed by: cddbd v1.5.2PL0 Copyright (c) Steve Scherf et al.
# Submitted via: EasyCDDAExtractor 16.0.9.1
#
DISCID=1912a712
DTITLE=LAN ANH - DANG DUONG - DAT NUOC TRON NIEM VUI 
DYEAR=1900
DGENRE=
TTITLE0=DANG DUONG - DAT NUOC TRON NIEM VUI 
TTITLE1=LAN ANH - LOI CA DANG BAC
TTITLE2=SONG CA  - CON KENH TA DAO
TTITLE3=LAN ANH - TIENG DAN TALU 
TTITLE4=DANG DUONG - HA NOI NIEM TIN VA HY VONG 
TTITLE5=SONG CA  - THANG BA TAY NGUYEN
TTITLE6=LAN ANH - BAI CA HY VONG
TTITLE7=DANG DUONG - TINH CA
TTITLE8=SONG CA  - CUNG HANH QUAN DI GIUA MUA XUAN
TTITLE9=LAN ANH - TIENG HAT GIUA RUNG PAC PO
TTITLE10=DANG DUONG - TIENG HAT TU THANH PHO MANG TEN NGUOI 
TTITLE11=SONG CA  - NGUOI HA NOI
TTITLE12=LAN ANH - BONG CAY KO NIA
TTITLE13=DANG DUONG - CHIEC GAY TRUONG SON
TTITLE14=LAN ANH - DUONG TOI DI DAI THEO DAT NUOC
TTITLE15=LAN ANH - LANG TOI
TTITLE16=DANG DUONG - TOI LA NGUOI THO LO
TTITLE17=LAN ANH - NGUOI LAI DO TREN SONG PO CO
EXTD=
EXTT0=
EXTT1=
EXTT2=
EXTT3=
EXTT4=
EXTT5=
EXTT6=
EXTT7=
EXTT8=
EXTT9=
EXTT10=
EXTT11=
EXTT12=
EXTT13=
EXTT14=
EXTT15=
EXTT16=
EXTT17=
PLAYORDER=
